<svg xmlns="http://www.w3.org/2000/svg" xmlns:xlink="http://www.w3.org/1999/xlink" width="500" zoomAndPan="magnify" viewBox="0 0 375 374.999991" height="500" preserveAspectRatio="xMidYMid meet" version="1.0"><defs><clipPath id="id1"><path d="M 62 21.90625 L 312 21.90625 L 312 353.40625 L 62 353.40625 Z M 62 21.90625 " clip-rule="nonzero"/></clipPath></defs><g clip-path="url(#id1)"><path fill="#790923" d="M 63.046875 65.222656 L 63.046875 310.089844 C 63.046875 310.089844 59.652344 353.425781 98.652344 353.425781 L 276.164062 353.425781 C 315.183594 353.425781 311.785156 310.089844 311.785156 310.089844 L 311.785156 65.222656 C 311.785156 65.222656 315.183594 21.890625 276.164062 21.890625 L 98.652344 21.890625 C 59.652344 21.890625 63.046875 65.222656 63.046875 65.222656 " fill-opacity="1" fill-rule="nonzero"/></g><path fill="#f77e8a" d="M 134.207031 149.515625 C 134.207031 153.652344 130.863281 157 126.734375 157 L 100.359375 157 C 96.246094 157 92.886719 153.652344 92.886719 149.515625 L 92.886719 127.183594 C 92.886719 123.046875 96.246094 119.683594 100.359375 119.683594 L 126.734375 119.683594 C 130.863281 119.683594 134.207031 123.046875 134.207031 127.183594 L 134.207031 149.515625 " fill-opacity="1" fill-rule="nonzero"/><path fill="#e8e8e8" d="M 183.1875 149.515625 C 183.1875 153.652344 179.84375 157 175.714844 157 L 149.355469 157 C 145.226562 157 141.882812 153.652344 141.882812 149.515625 L 141.882812 127.183594 C 141.882812 123.046875 145.226562 119.683594 149.355469 119.683594 L 175.714844 119.683594 C 179.84375 119.683594 183.1875 123.046875 183.1875 127.183594 L 183.1875 149.515625 " fill-opacity="1" fill-rule="nonzero"/><path fill="#e8e8e8" d="M 232.574219 149.515625 C 232.574219 153.652344 229.230469 157 225.085938 157 L 198.726562 157 C 194.597656 157 191.253906 153.652344 191.253906 149.515625 L 191.253906 127.183594 C 191.253906 123.046875 194.597656 119.683594 198.726562 119.683594 L 225.085938 119.683594 C 229.230469 119.683594 232.574219 123.046875 232.574219 127.183594 L 232.574219 149.515625 " fill-opacity="1" fill-rule="nonzero"/><path fill="#e8e8e8" d="M 281.949219 149.515625 C 281.949219 153.652344 278.605469 157 274.457031 157 L 248.101562 157 C 243.972656 157 240.628906 153.652344 240.628906 149.515625 L 240.628906 127.183594 C 240.628906 123.046875 243.972656 119.683594 248.101562 119.683594 L 274.457031 119.683594 C 278.605469 119.683594 281.949219 123.046875 281.949219 127.183594 L 281.949219 149.515625 " fill-opacity="1" fill-rule="nonzero"/><path fill="#e8e8e8" d="M 134.207031 201.824219 C 134.207031 205.976562 130.863281 209.324219 126.734375 209.324219 L 100.359375 209.324219 C 96.246094 209.324219 92.886719 205.976562 92.886719 201.824219 L 92.886719 179.507812 C 92.886719 175.371094 96.246094 172.023438 100.359375 172.023438 L 126.734375 172.023438 C 130.863281 172.023438 134.207031 175.371094 134.207031 179.507812 L 134.207031 201.824219 " fill-opacity="1" fill-rule="nonzero"/><path fill="#e8e8e8" d="M 183.1875 201.824219 C 183.1875 205.976562 179.84375 209.324219 175.714844 209.324219 L 149.355469 209.324219 C 145.226562 209.324219 141.882812 205.976562 141.882812 201.824219 L 141.882812 179.507812 C 141.882812 175.371094 145.226562 172.023438 149.355469 172.023438 L 175.714844 172.023438 C 179.84375 172.023438 183.1875 175.371094 183.1875 179.507812 L 183.1875 201.824219 " fill-opacity="1" fill-rule="nonzero"/><path fill="#e8e8e8" d="M 232.574219 201.824219 C 232.574219 205.976562 229.230469 209.324219 225.085938 209.324219 L 198.726562 209.324219 C 194.597656 209.324219 191.253906 205.976562 191.253906 201.824219 L 191.253906 179.507812 C 191.253906 175.371094 194.597656 172.023438 198.726562 172.023438 L 225.085938 172.023438 C 229.230469 172.023438 232.574219 175.371094 232.574219 179.507812 L 232.574219 201.824219 " fill-opacity="1" fill-rule="nonzero"/><path fill="#e8e8e8" d="M 281.949219 201.824219 C 281.949219 205.976562 278.605469 209.324219 274.457031 209.324219 L 248.101562 209.324219 C 243.972656 209.324219 240.628906 205.976562 240.628906 201.824219 L 240.628906 179.507812 C 240.628906 175.371094 243.972656 172.023438 248.101562 172.023438 L 274.457031 172.023438 C 278.605469 172.023438 281.949219 175.371094 281.949219 179.507812 L 281.949219 201.824219 " fill-opacity="1" fill-rule="nonzero"/><path fill="#e8e8e8" d="M 134.207031 252.691406 C 134.207031 256.808594 130.863281 260.175781 126.734375 260.175781 L 100.359375 260.175781 C 96.246094 260.175781 92.886719 256.808594 92.886719 252.691406 L 92.886719 230.359375 C 92.886719 226.222656 96.246094 222.855469 100.359375 222.855469 L 126.734375 222.855469 C 130.863281 222.855469 134.207031 226.222656 134.207031 230.359375 L 134.207031 252.691406 " fill-opacity="1" fill-rule="nonzero"/><path fill="#e8e8e8" d="M 183.1875 252.691406 C 183.1875 256.808594 179.84375 260.175781 175.714844 260.175781 L 149.355469 260.175781 C 145.226562 260.175781 141.882812 256.808594 141.882812 252.691406 L 141.882812 230.359375 C 141.882812 226.222656 145.226562 222.855469 149.355469 222.855469 L 175.714844 222.855469 C 179.84375 222.855469 183.1875 226.222656 183.1875 230.359375 L 183.1875 252.691406 " fill-opacity="1" fill-rule="nonzero"/><path fill="#e8e8e8" d="M 232.574219 252.691406 C 232.574219 256.808594 229.230469 260.175781 225.085938 260.175781 L 198.726562 260.175781 C 194.597656 260.175781 191.253906 256.808594 191.253906 252.691406 L 191.253906 230.359375 C 191.253906 226.222656 194.597656 222.855469 198.726562 222.855469 L 225.085938 222.855469 C 229.230469 222.855469 232.574219 226.222656 232.574219 230.359375 L 232.574219 252.691406 " fill-opacity="1" fill-rule="nonzero"/><path fill="#e8e8e8" d="M 281.949219 252.691406 C 281.949219 256.808594 278.605469 260.175781 274.457031 260.175781 L 248.101562 260.175781 C 243.972656 260.175781 240.628906 256.808594 240.628906 252.691406 L 240.628906 230.359375 C 240.628906 226.222656 243.972656 222.855469 248.101562 222.855469 L 274.457031 222.855469 C 278.605469 222.855469 281.949219 226.222656 281.949219 230.359375 L 281.949219 252.691406 " fill-opacity="1" fill-rule="nonzero"/><path fill="#e8e8e8" d="M 134.207031 303.886719 C 134.207031 308.039062 130.863281 311.386719 126.734375 311.386719 L 100.359375 311.386719 C 96.246094 311.386719 92.886719 308.039062 92.886719 303.886719 L 92.886719 281.570312 C 92.886719 277.433594 96.246094 274.085938 100.359375 274.085938 L 126.734375 274.085938 C 130.863281 274.085938 134.207031 277.433594 134.207031 281.570312 L 134.207031 303.886719 " fill-opacity="1" fill-rule="nonzero"/><path fill="#e8e8e8" d="M 183.1875 303.886719 C 183.1875 308.039062 179.84375 311.386719 175.714844 311.386719 L 149.355469 311.386719 C 145.226562 311.386719 141.882812 308.039062 141.882812 303.886719 L 141.882812 281.570312 C 141.882812 277.433594 145.226562 274.085938 149.355469 274.085938 L 175.714844 274.085938 C 179.84375 274.085938 183.1875 277.433594 183.1875 281.570312 L 183.1875 303.886719 " fill-opacity="1" fill-rule="nonzero"/><path fill="#e8e8e8" d="M 232.574219 303.886719 C 232.574219 308.039062 229.230469 311.386719 225.085938 311.386719 L 198.726562 311.386719 C 194.597656 311.386719 191.253906 308.039062 191.253906 303.886719 L 191.253906 281.570312 C 191.253906 277.433594 194.597656 274.085938 198.726562 274.085938 L 225.085938 274.085938 C 229.230469 274.085938 232.574219 277.433594 232.574219 281.570312 L 232.574219 303.886719 " fill-opacity="1" fill-rule="nonzero"/><path fill="#e8e8e8" d="M 281.949219 303.886719 C 281.949219 308.039062 278.605469 311.386719 274.457031 311.386719 L 248.101562 311.386719 C 243.972656 311.386719 240.628906 308.039062 240.628906 303.886719 L 240.628906 281.570312 C 240.628906 277.433594 243.972656 274.085938 248.101562 274.085938 L 274.457031 274.085938 C 278.605469 274.085938 281.949219 277.433594 281.949219 281.570312 L 281.949219 303.886719 " fill-opacity="1" fill-rule="nonzero"/><path fill="#e8e8e8" d="M 281.949219 89.265625 C 281.949219 96.339844 275.6875 102.082031 267.976562 102.082031 L 106.859375 102.082031 C 99.144531 102.082031 92.886719 96.339844 92.886719 89.265625 L 92.886719 62.269531 C 92.886719 55.175781 99.144531 49.433594 106.859375 49.433594 L 267.976562 49.433594 C 275.6875 49.433594 281.949219 55.175781 281.949219 62.269531 L 281.949219 89.265625 " fill-opacity="1" fill-rule="nonzero"/></svg>